#!OML:ASF F:\VICON\USERDATA\INSTALL\rory3\rory3.ASF
:FULLY-SPECIFIED
:DEGREES
1
root -0.395833 17.9424 -32.3231 -2.28595 -5.14109 -7.31488
lowerback 9.5737 1.04112 5.84335
upperback 1.44752 2.09761 2.8216
thorax -3.75836 0.975022 -0.610006
lowerneck -15.5942 -3.09486 -1.70088
upperneck 17.6323 -4.03308 0.92552
head 8.08799 -1.93426 0.124897
rclavicle -9.26834e-015 -1.0138e-014
rhumerus -23.8238 -4.83852 -83.3702
rradius 28.0348
rwrist 2.37856
rhand -18.0771 22.5634
rfingers 7.12502
rthumb 8.1959 -7.25765
lclavicle -9.26834e-015 -1.0138e-014
lhumerus -35.5903 2.86931 84.0165
lradius 28.0452
lwrist 2.93293
lhand -25.9458 24.604
lfingers 7.12502
lthumb 0.598116 54.5829
rfemur -4.7965 6.24215 33.1921
rtibia 29.1614
rfoot -19.2902 -4.10666
rtoes 13.2096
lfemur -27.0044 1.6484 -12.0597
ltibia 45.0415
lfoot -8.91272 4.1584
ltoes -7.7905
2
root -0.397422 17.9568 -32.1707 -2.15521 -5.5406 -7.50915
lowerback 9.65686 1.41498 6.17099
upperback 2.59341 2.55281 2.58369
thorax -2.55757 1.24559 -1.07634
lowerneck -20.6148 -3.35024 -1.07452
upperneck 18.9413 -4.50253 0.889573
head 9.41996 -2.07007 -0.144493
rclavicle -2.168e-014 3.18055e-015
rhumerus -20.9229 -5.68907 -83.7328
rradius 28.058
rwrist 2.65283
rhand -19.3073 23.5198
rfingers 7.12502
rthumb 7.00851 -6.34419
lclavicle -2.168e-014 3.18055e-015
lhumerus -32.6791 2.3159 84.1284
lradius 27.3035
lwrist 2.78619
lhand -25.7458 25.3408
lfingers 7.12502
lthumb 0.791303 55.3191
rfemur -4.08705 6.29507 33.417
rtibia 28.585
rfoot -19.1531 -4.14381
rtoes 12.7868
lfemur -27.201 1.48189 -11.6129
ltibia 42.7869
lfoot -8.53719 4.53595
ltoes -6.25983
3
root -0.399792 17.9593 -32.0203 -2.04241 -5.79026 -7.5691
lowerback 9.65012 1.53037 6.1147
upperback 2.1343 2.72841 2.59849
thorax -3.02577 1.31294 -1.05818
lowerneck -18.4964 -3.41398 -1.1595
upperneck 18.2393 -4.57866 0.907732
head 8.80235 -2.1318 -0.090651
rclavicle -7.69048e-015 -2.15681e-014
rhumerus -21.6357 -5.33462 -83.6236
rradius 28.5718
rwrist 2.36015
rhand -19.0452 22.777
rfingers 7.12502
rthumb 7.26153 -7.07838
lclavicle -7.69048e-015 -2.15681e-014
lhumerus -33.77 2.38425 84.1366
lradius 27.1928
lwrist 2.74576
lhand -25.9225 25.1998
lfingers 7.12502
lthumb 0.620612 55.1787
rfemur -3.63051 6.33969 33.5368
rtibia 28.4396
rfoot -19.2445 -4.51404
rtoes 11.5888
lfemur -27.2876 1.26135 -11.3356
ltibia 40.2313
lfoot -7.69442 4.76962
ltoes -6.34108
4
root -0.397452 17.9481 -31.8653 -1.99055 -5.66539 -7.67068
lowerback 9.48408 1.57624 6.4049
upperback 2.2057 2.79182 2.39035
thorax -2.83011 1.3491 -1.43464
lowerneck -18.6441 -3.32409 -0.693653
upperneck 18.073 -4.59045 0.949192
head 8.76145 -2.10045 -0.154545
rclavicle 1.89249e-014 2.60905e-015
rhumerus -21.0403 -5.72456 -83.7979
rradius 28.6897
rwrist 2.0271
rhand -18.1134 21.2986
rfingers 7.12502
rthumb 8.1609 -8.52376
lclavicle 1.89249e-014 2.60905e-015
lhumerus -33.7842 2.29637 83.9228
lradius 26.9548
lwrist 2.71004
lhand -26.0514 23.1103
lfingers 7.12502
lthumb 0.496138 53.0895
rfemur -3.06872 6.1854 33.7022
rtibia 28.1384
rfoot -19.3166 -5.02312
rtoes 9.5141
lfemur -27.2853 0.783093 -11.0448
ltibia 37.6763
lfoot -7.12613 4.86263
ltoes -7.16879
5
root -0.391341 17.9441 -31.7046 -1.85066 -5.65793 -7.60904
lowerback 9.41448 1.48113 6.21556
upperback 1.39991 2.69548 2.51132
thorax -3.65558 1.26634 -1.20672
lowerneck -15.7413 -3.09194 -1.2725
upperneck 17.5996 -4.19852 1.2556
head 8.1034 -1.94922 0.14324
rclavicle 1.52319e-014 3.77691e-014
rhumerus -22.3253 -4.89644 -83.5787
rradius 29.0364
rwrist 1.64031
rhand -17.3998 20.0431
rfingers 7.12502
rthumb 8.84958 -9.75136
lclavicle 1.52319e-014 3.77691e-014
lhumerus -35.8496 2.75478 83.9364
lradius 26.9367
lwrist 2.81837
lhand -26.1034 21.6021
lfingers 7.12502
lthumb 0.445924 51.5814
rfemur -2.58141 6.13782 33.6383
rtibia 27.9002
rfoot -19.5075 -5.25358
rtoes 7.92172
lfemur -27.2128 0.224166 -10.8882
ltibia 35.0423
lfoot -6.64969 5.05879
ltoes -7.58164
6
root -0.385095 17.9391 -31.5452 -1.66588 -5.72875 -7.74432
lowerback 9.59422 1.32264 5.93935
upperback 0.946075 2.51724 2.89641
thorax -4.27293 1.16102 -0.644297
lowerneck -14.7103 -3.00078 -2.14289
upperneck 17.8403 -3.91715 1.40224
head 8.01851 -1.86644 0.380406
rclavicle -2.84386e-014 -2.24627e-014
rhumerus -22.8296 -3.41796 -83.3184
rradius 29.4095
rwrist 1.22716
rhand -17.1036 18.8332
rfingers 7.12502
rthumb 9.13542 -10.949
lclavicle -2.84386e-014 -2.24627e-014
lhumerus -36.9894 3.88563 84.0616
lradius 26.8579
lwrist 2.66007
lhand -25.9688 21.9402
lfingers 7.12502
lthumb 0.575844 51.9192
rfemur -2.06548 6.36311 33.8164
rtibia 27.6143
rfoot -19.6957 -5.57404
rtoes 7.55153
lfemur -27.2063 -0.334931 -10.4821
ltibia 32.4091
lfoot -6.15222 5.35418
ltoes -7.27598
7
root -0.377539 17.9281 -31.3852 -1.44649 -5.65216 -7.86559
lowerback 9.37096 1.27304 5.96413
upperback 1.14816 2.42659 2.99961
thorax -3.94472 1.12799 -0.530258
lowerneck -15.351 -3.12281 -2.3172
upperneck 17.8932 -4.01534 1.33228
head 8.1545 -1.92696 0.364433
rclavicle 3.0998e-014 2.18663e-014
rhumerus -21.9602 -2.75764 -83.3133
rradius 29.4736
rwrist 1.16987
rhand -17.659 17.8878
rfingers 7.12502
rthumb 8.59942 -11.9171
lclavicle 3.0998e-014 2.18663e-014
lhumerus -36.6696 4.46984 84.1276
lradius 26.7376
lwrist 2.37525
lhand -25.7875 22.8475
lfingers 7.12502
lthumb 0.750981 52.826
rfemur -1.59713 6.50508 34.0055
rtibia 27.3197
rfoot -19.8514 -6.0639
rtoes 5.89317
lfemur -27.2781 -0.917656 -10.0968
ltibia 29.7604
lfoot -5.68345 5.57413
ltoes -6.7225
8
root -0.370676 17.9184 -31.2265 -1.28865 -5.52063 -7.91686
lowerback 9.09048 1.63697 6.51509
upperback 2.22623 2.84808 2.41729
thorax -2.58236 1.38428 -1.45852
lowerneck -19.6196 -3.47526 -0.880882
upperneck 18.4896 -4.7626 1.01808
head 9.08626 -2.17449 -0.145337
rclavicle 9.78704e-015 1.1778e-014
rhumerus -19.2274 -4.64729 -83.786
rradius 29.2605
rwrist 1.87509
rhand -18.1518 16.6566
rfingers 7.12502
rthumb 8.1238 -13.1672
lclavicle 9.78704e-015 1.1778e-014
lhumerus -33.8909 3.03362 84.1483
lradius 26.2433
lwrist 2.48994
lhand -25.6523 23.8639
lfingers 7.12502
lthumb 0.881526 53.8418
rfemur -1.05874 6.49829 34.1066
rtibia 27.0017
rfoot -20.0284 -6.4439
rtoes 6.82847
lfemur -27.2945 -1.60519 -9.7521
ltibia 27.1547
lfoot -5.39942 5.7009
ltoes -6.48583
9
root -0.362511 17.907 -31.0648 -1.19421 -5.55773 -7.80196
lowerback 9.08685 1.70015 6.39878
upperback 2.06652 2.92814 2.33864
thorax -2.74312 1.41715 -1.48727
lowerneck -19.5004 -3.36012 -0.783901
upperneck 18.4928 -4.62909 0.99841
head 9.062 -2.10835 -0.147716
rclavicle -4.10459e-015 4.78636e-015
rhumerus -19.2205 -4.54778 -83.7912
rradius 29.4277
rwrist 1.97404
rhand -17.4776 16.532
rfingers 7.12502
rthumb 8.77449 -13.2656
lclavicle -4.10459e-015 4.78636e-015
lhumerus -34.3427 2.98238 84.1836
lradius 26.2944
lwrist 2.41559
lhand -25.3229 24.682
lfingers 7.12502
lthumb 1.19975 54.6584
rfemur -0.414017 6.65666 34.0352
rtibia 26.7528
rfoot -20.4267 -6.74128
rtoes 6.03326
lfemur -27.0889 -2.47828 -9.48134
ltibia 24.4817
lfoot -5.0899 6.09438
ltoes -6.40287
10
root -0.353983 17.8927 -30.8975 -1.11451 -5.79197 -7.91027
lowerback 9.08715 1.88491 6.48687
upperback 2.17386 3.17246 2.27552
thorax -2.60533 1.54379 -1.62393
lowerneck -20.1828 -3.46788 -0.695915
upperneck 18.8547 -4.84342 1.1471
head 9.31339 -2.17515 -0.156252
rclavicle -1.67569e-014 -1.21259e-014
rhumerus -18.789 -4.73443 -83.8258
rradius 29.7223
rwrist 1.78623
rhand -16.8859 18.3654
rfingers 7.12502
rthumb 9.34541 -11.4074
lclavicle -1.67569e-014 -1.21259e-014
lhumerus -34.2151 2.78146 84.2033
lradius 26.3475
lwrist 2.27137
lhand -24.9862 25.2649
lfingers 7.12502
lthumb 1.52487 55.2392
rfemur 0.358399 6.85986 34.188
rtibia 26.4311
rfoot -20.7562 -6.98995
rtoes 4.95759
lfemur -26.7363 -3.23451 -8.91051
ltibia 21.8483
lfoot -4.96713 6.61022
ltoes -6.6953
11
root -0.343992 17.883 -30.7299 -1.06543 -5.91465 -7.77736
lowerback 8.71196 1.79262 6.24293
upperback 1.63277 3.03409 2.42931
thorax -2.99323 1.45671 -1.31297
lowerneck -17.0276 -3.43521 -1.51376
upperneck 18.0287 -4.65141 1.48732
head 8.49451 -2.14152 0.180511
rclavicle -9.18603e-015 -2.39784e-014
rhumerus -20.0023 -3.45872 -83.6562
rradius 30.2739
rwrist 1.22597
rhand -17.2033 20.3316
rfingers 7.12502
rthumb 9.0392 -9.45469
lclavicle -9.18603e-015 -2.39784e-014
lhumerus -35.9087 3.53072 84.1811
lradius 26.4445
lwrist 1.90095
lhand -24.9259 25.5868
lfingers 7.12502
lthumb 1.58318 55.5606
rfemur 1.10815 6.92851 34.0546
rtibia 26.0585
rfoot -20.9239 -7.20665
rtoes 4.12567
lfemur -26.3661 -4.22296 -8.57859
ltibia 19.3123
lfoot -4.78344 7.36182
ltoes -8.89947
12
root -0.333019 17.8736 -30.5641 -1.01935 -5.94725 -7.87773
lowerback 8.45482 1.63171 6.32553
upperback 1.39874 2.82469 2.55342
thorax -3.11045 1.34532 -1.20395
lowerneck -15.601 -3.21895 -1.98004
upperneck 17.5365 -4.29402 1.71066
head 8.08599 -1.99721 0.401149
rclavicle -1.69775e-014 -1.9133e-014
rhumerus -20.5164 -2.46667 -83.6732
rradius 30.7558
rwrist 1.01629
rhand -16.8661 19.4213
rfingers 7.12502
rthumb 9.36451 -10.3507
lclavicle -1.69775e-014 -1.9133e-014
lhumerus -36.8483 4.26465 84.0886
lradius 26.393
lwrist 1.75569
lhand -25.2479 24.9805
lfingers 7.12502
lthumb 1.27214 54.9564
rfemur 1.85393 6.93097 34.1666
rtibia 25.6108
rfoot -20.9788 -7.41731
rtoes 3.26237
lfemur -26.0305 -5.13174 -8.02204
ltibia 16.9405
lfoot -4.33095 8.09757
ltoes -9.34955
13
root -0.324896 17.8609 -30.3996 -0.895718 -6.1895 -8.02306
lowerback 8.38058 1.7839 6.41081
upperback 1.56563 3.01703 2.55155
thorax -2.87787 1.44933 -1.2659
lowerneck -16.3925 -3.17981 -1.81302
upperneck 17.5999 -4.26014 1.669
head 8.24215 -1.96697 0.351373
rclavicle 9.38636e-015 7.70291e-015
rhumerus -19.9859 -2.59919 -83.6412
rradius 30.9628
rwrist 0.92564
rhand -16.012 17.2599
rfingers 7.12502
rthumb 10.1885 -12.4734
lclavicle 9.38636e-015 7.70291e-015
lhumerus -36.5716 4.18722 84.2034
lradius 26.2026
lwrist 1.90017
lhand -25.51 24.1623
lfingers 7.12502
lthumb 1.01898 54.1396
rfemur 2.51598 7.19493 34.3425
rtibia 25.2152
rfoot -20.9491 -7.57689
rtoes 2.42038
lfemur -25.6552 -5.71252 -7.42969
ltibia 14.5628
lfoot -3.41593 8.76731
ltoes -9.02027
14
root -0.310985 17.8457 -30.2346 -0.780388 -6.28344 -8.02274
lowerback 8.50515 1.98097 6.41323
upperback 1.73516 3.2751 2.43704
thorax -2.7461 1.5838 -1.41208
lowerneck -17.626 -3.38282 -1.56109
upperneck 18.0363 -4.58469 1.61116
head 8.60703 -2.09471 0.227999
rclavicle 1.11079e-014 -5.78339e-015
rhumerus -19.3001 -3.4287 -83.5808
rradius 30.955
rwrist 1.14731
rhand -16.1236 17.6535
rfingers 7.12502
rthumb 10.0809 -12.0851
lclavicle 1.11079e-014 -5.78339e-015
lhumerus -36.0497 3.85474 84.3211
lradius 26.0212
lwrist 1.82947
lhand -25.5998 24.0304
lfingers 7.12502
lthumb 0.932289 54.0081
rfemur 3.19668 7.19927 34.2991
rtibia 24.8459
rfoot -21.0426 -7.64535
rtoes 1.96238
lfemur -25.3571 -6.35643 -7.04698
ltibia 12.4204
lfoot -2.55647 9.47263
ltoes -10.0004
15
root -0.29724 17.8271 -30.0674 -0.584874 -6.13591 -7.98219
lowerback 8.34387 2.14123 6.58637
upperback 2.03693 3.46077 2.13204
thorax -2.29917 1.69394 -1.82475
lowerneck -19.2729 -3.61862 -1.04315
upperneck 18.5482 -5.05827 1.64078
head 9.07082 -2.25601 0.0590923
rclavicle 6.03808e-014 -1.03865e-014
rhumerus -18.3273 -4.3907 -83.7209
rradius 30.8716
rwrist 1.33434
rhand -16.0388 18.0709
rfingers 7.12502
rthumb 10.1627 -11.6636
lclavicle 6.03808e-014 -1.03865e-014
lhumerus -35.1464 3.14397 84.287
lradius 25.9009
lwrist 1.94782
lhand -25.6326 23.7212
lfingers 7.12502
lthumb 0.900546 53.6991
rfemur 3.7317 7.12862 34.2268
rtibia 24.5996
rfoot -21.2742 -7.78325
rtoes 1.88525
lfemur -25.2431 -6.98241 -6.76919
ltibia 10.5321
lfoot -2.26734 10.2281
ltoes -9.27538
